<svg width="110" height="110" viewBox="0 0 110 110" fill="none" xmlns="http://www.w3.org/2000/svg">
<path d="M80.6528 51.0047L41.6236 27.2821C40.8128 26.8331 39.8991 26.6032 38.9724 26.6148C38.0457 26.6265 37.138 26.8794 36.3388 27.3487C35.5396 27.8179 34.8765 28.4873 34.4148 29.2909C33.9531 30.0944 33.7087 31.0044 33.7057 31.9312V78.0689C33.7087 78.9957 33.9531 79.9056 34.4148 80.7092C34.8765 81.5127 35.5396 82.1821 36.3388 82.6514C37.138 83.1206 38.0457 83.3735 38.9724 83.3852C39.8991 83.3969 40.8128 83.1669 41.6236 82.7179L80.6528 60.3236C81.48 59.8589 82.1686 59.1824 82.6478 58.3635C83.127 57.5446 83.3796 56.613 83.3796 55.6642C83.3796 54.7154 83.127 53.7837 82.6478 52.9648C82.1686 52.146 81.48 51.4694 80.6528 51.0047V51.0047ZM110 55C110 44.122 106.774 33.4884 100.731 24.4437C94.6873 15.399 86.0975 8.34948 76.0476 4.18666C65.9977 0.0238439 54.939 -1.06536 44.2701 1.05683C33.6011 3.17902 23.801 8.41727 16.1091 16.1092C8.41725 23.801 3.17902 33.6011 1.05684 44.2701C-1.06535 54.939 0.0238202 65.9977 4.18664 76.0476C8.34946 86.0975 15.3989 94.6874 24.4436 100.731C33.4883 106.774 44.122 110 55 110C69.5869 110 83.5763 104.205 93.8908 93.8909C104.205 83.5764 110 69.5869 110 55V55ZM10.6472 55C10.6472 46.2279 13.2484 37.6527 18.122 30.3589C22.9955 23.0651 29.9225 17.3803 38.0269 14.0234C46.1313 10.6664 55.0492 9.78806 63.6528 11.4994C72.2564 13.2108 80.1593 17.435 86.3622 23.6378C92.565 29.8407 96.7892 37.7436 98.5006 46.3472C100.212 54.9508 99.3336 63.8687 95.9766 71.9731C92.6197 80.0775 86.9349 87.0045 79.6411 91.878C72.3473 96.7516 63.7722 99.3528 55 99.3528C49.1751 99.3542 43.407 98.2079 38.0253 95.9795C32.6435 93.751 27.7536 90.484 23.6348 86.3652C19.516 82.2464 16.249 77.3565 14.0206 71.9747C11.7921 66.593 10.6458 60.8249 10.6472 55V55Z" fill="black"/>
</svg>
